<svg width="131" height="149" viewBox="0 0 131 149" fill="none" xmlns="http://www.w3.org/2000/svg">
<g clip-path="url(#clip0_31_15)">
<path d="M16.1568 45.082L60.6972 19.343C64.8385 16.9499 66.2574 11.6497 63.8664 7.50464L63.8664 7.50458C61.4754 3.35955 56.1801 1.93936 52.0388 4.33249L7.49841 30.0715C3.35717 32.4646 1.93827 37.7648 4.32922 41.9099L4.32925 41.9099C6.7202 46.055 12.0156 47.4752 16.1568 45.082Z" fill="black"/>
<path d="M16.1571 96.9661L112.646 41.2069C116.788 38.8138 118.207 33.5136 115.816 29.3685L115.816 29.3685C113.425 25.2234 108.129 23.8032 103.988 26.1964L7.49869 81.9556C3.35745 84.3487 1.93857 89.649 4.32955 93.794C6.72049 97.9391 12.0159 99.3593 16.1571 96.9661Z" fill="black"/>
<path d="M20.2281 89.2945L20.2281 37.8166C20.2281 33.0303 16.3516 29.1503 11.5697 29.1503H11.5697C6.78778 29.1503 2.91129 33.0303 2.91129 37.8166L2.91129 89.2945C2.91129 94.0808 6.78778 97.9609 11.5697 97.9609H11.5697C16.3516 97.9609 20.2281 94.0808 20.2281 89.2945Z" fill="black"/>
<path d="M66.0079 34.007V11.6603C66.0079 6.83099 62.0965 2.91602 57.2716 2.91602C52.4467 2.91602 48.5353 6.83099 48.5353 11.6603V34.007C48.5353 38.8364 52.4467 42.7513 57.2716 42.7513C62.0965 42.7513 66.0079 38.8364 66.0079 34.007Z" fill="black"/>
<path d="M112.239 98.9606L67.6982 124.7C63.557 127.093 62.1381 132.393 64.5291 136.538L64.5291 136.538C66.92 140.683 72.2154 142.103 76.3567 139.71L120.897 113.971C125.038 111.578 126.457 106.278 124.066 102.133C121.675 97.9876 116.38 96.5674 112.239 98.9606Z" fill="black"/>
<path d="M112.239 47.0785L15.7495 102.838C11.6082 105.231 10.1893 110.531 12.5803 114.676L12.5803 114.676C14.9713 118.821 20.2667 120.241 24.4079 117.848L120.897 62.0891C125.039 59.6959 126.457 54.3957 124.066 50.2506C121.675 46.1056 116.38 44.6854 112.239 47.0785Z" fill="black"/>
<path d="M108.166 54.7478V106.226C108.166 111.012 112.043 114.892 116.824 114.892H116.825C121.606 114.892 125.483 111.012 125.483 106.226V54.7478C125.483 49.9615 121.606 46.0815 116.825 46.0815H116.824C112.043 46.0815 108.166 49.9615 108.166 54.7478Z" fill="black"/>
<path d="M62.3876 110.036V132.383C62.3876 137.212 66.299 141.127 71.1239 141.127C75.9488 141.127 79.8602 137.212 79.8602 132.383V110.036C79.8602 105.207 75.9488 101.292 71.1239 101.292C66.299 101.292 62.3876 105.207 62.3876 110.036Z" fill="black"/>
</g>
<defs>
<clipPath id="clip0_31_15">
<rect width="131" height="149" fill="white"/>
</clipPath>
</defs>
</svg>
