<svg width="759" height="638" viewBox="0 0 759 638" fill="none" xmlns="http://www.w3.org/2000/svg">
<g filter="url(#filter0_d_35_287)">
<circle cx="375.5" cy="313.5" r="35.5" fill="white"/>
</g>
<path fill-rule="evenodd" clip-rule="evenodd" d="M376.935 315.307C376.44 316.295 375.592 316.931 374.673 317.145C374.535 317.145 374.322 317.215 374.109 317.215C372.557 317.215 371.639 316.014 371.639 314.249C371.639 311.986 372.98 310.928 374.673 310.431C375.592 310.22 376.653 310.149 377.712 310.149V310.997C377.712 312.622 377.782 313.893 376.935 315.307ZM377.712 306.901C376.794 306.971 375.733 307.041 374.673 307.18C373.05 307.395 371.427 307.677 370.087 308.313C367.473 309.373 365.707 311.633 365.707 314.953C365.707 319.124 368.389 321.241 371.782 321.241C372.911 321.241 373.829 321.099 374.673 320.889C376.019 320.464 377.146 319.687 378.487 318.273C379.265 319.333 379.479 319.829 380.819 320.959C381.172 321.099 381.525 321.099 381.806 320.889C382.655 320.181 384.139 318.909 384.915 318.203C385.268 317.921 385.199 317.496 384.984 317.145C384.209 316.155 383.43 315.307 383.43 313.399V307.041C383.43 304.357 383.645 301.883 381.667 300.048C380.043 298.567 377.5 298 375.522 298H374.673C371.075 298.209 367.263 299.764 366.412 304.215C366.271 304.782 366.696 304.993 366.979 305.062L370.933 305.557C371.357 305.486 371.569 305.132 371.639 304.782C371.991 303.227 373.263 302.45 374.673 302.307H374.958C375.806 302.307 376.725 302.661 377.217 303.369C377.782 304.215 377.712 305.347 377.712 306.337V306.901Z" fill="black"/>
<path fill-rule="evenodd" clip-rule="evenodd" d="M391.996 321.964V321.963C391.981 321.629 391.911 321.375 391.773 321.164L391.757 321.144L391.741 321.123C391.599 320.969 391.464 320.91 391.317 320.846C390.879 320.677 390.241 320.586 389.473 320.585C388.922 320.585 388.314 320.637 387.703 320.771L387.701 320.729L387.085 320.935L387.074 320.94L386.726 321.053V321.068C386.328 321.233 385.951 321.445 385.603 321.699C385.389 321.859 385.212 322.072 385.202 322.397C385.202 322.493 385.223 322.587 385.263 322.673C385.304 322.76 385.362 322.836 385.435 322.897C385.515 322.961 385.608 323.008 385.706 323.034C385.805 323.061 385.908 323.067 386.009 323.052L386.039 323.051L386.062 323.047C386.363 322.983 386.802 322.939 387.315 322.868C387.755 322.819 388.222 322.783 388.627 322.783C388.913 322.781 389.17 322.802 389.347 322.839C389.423 322.853 389.496 322.878 389.565 322.913C389.579 322.971 389.585 323.03 389.582 323.09C389.586 323.429 389.443 324.057 389.245 324.671C389.053 325.285 388.82 325.9 388.666 326.309C388.626 326.407 388.605 326.513 388.604 326.619C388.6 326.783 388.668 326.983 388.811 327.115C388.951 327.246 389.131 327.299 389.281 327.299H389.289C389.515 327.297 389.707 327.207 389.872 327.077C391.434 325.673 391.977 323.429 392 322.165L391.996 321.964V321.964ZM387.366 323.911C387.201 323.91 387.039 323.947 386.89 324.017C386.719 324.085 386.543 324.165 386.378 324.235L386.135 324.336L385.819 324.463V324.466C382.386 325.859 378.779 326.676 375.441 326.747C375.319 326.751 375.195 326.751 375.076 326.751C369.827 326.755 365.545 324.319 361.225 321.919C361.084 321.843 360.928 321.801 360.768 321.799C360.574 321.799 360.375 321.872 360.229 322.007C360.157 322.077 360.099 322.16 360.059 322.252C360.02 322.344 360 322.444 360 322.544C359.998 322.805 360.139 323.047 360.337 323.203C364.391 326.725 368.835 329.996 374.813 330C374.93 330 375.049 329.996 375.167 329.995C378.969 329.909 383.269 328.624 386.607 326.527L386.627 326.514C387.074 326.247 387.504 325.95 387.912 325.625C388.168 325.435 388.345 325.138 388.345 324.829C388.334 324.281 387.869 323.911 387.367 323.911H387.366Z" fill="black"/>
<circle cx="376" cy="314" r="139.85" stroke="black" stroke-width="0.3"/>
<circle cx="376" cy="314" r="226.85" stroke="black" stroke-width="0.3"/>
<circle cx="376" cy="314" r="308.85" stroke="black" stroke-width="0.3"/>
<g filter="url(#filter1_d_35_287)">
<circle cx="374.5" cy="173.5" r="35.5" fill="white"/>
</g>
<path d="M384.148 179.145C384.148 181.137 383.503 182.852 382.213 184.291C380.923 185.73 379.247 186.618 377.185 186.957V190.375C377.185 190.557 377.126 190.707 377.01 190.824C376.893 190.941 376.744 191 376.562 191H373.937C373.768 191 373.622 190.938 373.499 190.814C373.376 190.691 373.314 190.544 373.314 190.375V186.957C372.458 186.84 371.632 186.638 370.834 186.352C370.037 186.065 369.379 185.775 368.86 185.482C368.341 185.189 367.861 184.877 367.421 184.545C366.98 184.213 366.678 183.969 366.516 183.812C366.354 183.656 366.241 183.539 366.176 183.461C365.955 183.187 365.942 182.921 366.137 182.66L368.14 180.023C368.231 179.893 368.38 179.815 368.588 179.789C368.782 179.763 368.938 179.822 369.054 179.965L369.093 180.004C370.559 181.293 372.134 182.107 373.82 182.445C374.3 182.549 374.779 182.602 375.259 182.602C376.309 182.602 377.233 182.322 378.031 181.762C378.828 181.202 379.227 180.408 379.227 179.379C379.227 179.014 379.13 178.669 378.935 178.344C378.741 178.018 378.524 177.745 378.284 177.523C378.044 177.302 377.665 177.058 377.146 176.791C376.627 176.524 376.199 176.316 375.862 176.166C375.525 176.016 375.006 175.805 374.306 175.531C373.8 175.323 373.402 175.16 373.11 175.043C372.818 174.926 372.419 174.753 371.914 174.525C371.408 174.298 371.003 174.096 370.698 173.92C370.393 173.744 370.027 173.513 369.599 173.227C369.171 172.94 368.824 172.663 368.558 172.396C368.293 172.13 368.011 171.811 367.712 171.439C367.414 171.068 367.184 170.691 367.022 170.307C366.86 169.923 366.724 169.49 366.613 169.008C366.503 168.526 366.448 168.018 366.448 167.484C366.448 165.687 367.083 164.112 368.354 162.758C369.625 161.404 371.278 160.531 373.314 160.141V156.625C373.314 156.456 373.376 156.309 373.499 156.186C373.622 156.062 373.768 156 373.937 156H376.562C376.744 156 376.893 156.059 377.01 156.176C377.126 156.293 377.185 156.443 377.185 156.625V160.062C377.924 160.141 378.64 160.29 379.334 160.512C380.028 160.733 380.592 160.951 381.026 161.166C381.461 161.381 381.872 161.625 382.261 161.898C382.65 162.172 382.903 162.361 383.02 162.465C383.137 162.569 383.234 162.66 383.312 162.738C383.532 162.973 383.565 163.22 383.409 163.48L381.834 166.332C381.73 166.527 381.581 166.632 381.386 166.645C381.205 166.684 381.03 166.638 380.861 166.508C380.822 166.469 380.728 166.391 380.579 166.273C380.43 166.156 380.177 165.984 379.82 165.756C379.464 165.528 379.084 165.32 378.682 165.131C378.281 164.942 377.797 164.773 377.233 164.623C376.669 164.473 376.115 164.398 375.57 164.398C374.338 164.398 373.334 164.678 372.556 165.238C371.777 165.798 371.388 166.521 371.388 167.406C371.388 167.745 371.444 168.057 371.554 168.344C371.664 168.63 371.855 168.9 372.128 169.154C372.4 169.408 372.656 169.623 372.896 169.799C373.136 169.975 373.499 170.176 373.985 170.404C374.471 170.632 374.864 170.808 375.162 170.932C375.46 171.055 375.914 171.234 376.523 171.469C377.211 171.729 377.736 171.934 378.099 172.084C378.462 172.234 378.955 172.462 379.577 172.768C380.2 173.074 380.689 173.35 381.046 173.598C381.402 173.845 381.804 174.171 382.252 174.574C382.699 174.978 383.043 175.391 383.283 175.814C383.522 176.238 383.727 176.736 383.895 177.309C384.064 177.882 384.148 178.493 384.148 179.145Z" fill="black"/>
<g filter="url(#filter2_d_35_287)">
<circle cx="553.5" cy="563.5" r="35.5" fill="white"/>
</g>
<path d="M563.148 569.145C563.148 571.137 562.503 572.852 561.213 574.291C559.923 575.73 558.247 576.618 556.185 576.957V580.375C556.185 580.557 556.126 580.707 556.01 580.824C555.893 580.941 555.744 581 555.562 581H552.937C552.768 581 552.622 580.938 552.499 580.814C552.376 580.691 552.314 580.544 552.314 580.375V576.957C551.458 576.84 550.632 576.638 549.834 576.352C549.037 576.065 548.379 575.775 547.86 575.482C547.341 575.189 546.861 574.877 546.421 574.545C545.98 574.213 545.678 573.969 545.516 573.812C545.354 573.656 545.241 573.539 545.176 573.461C544.955 573.187 544.942 572.921 545.137 572.66L547.14 570.023C547.231 569.893 547.38 569.815 547.588 569.789C547.782 569.763 547.938 569.822 548.054 569.965L548.093 570.004C549.559 571.293 551.134 572.107 552.82 572.445C553.3 572.549 553.779 572.602 554.259 572.602C555.309 572.602 556.233 572.322 557.031 571.762C557.828 571.202 558.227 570.408 558.227 569.379C558.227 569.014 558.13 568.669 557.935 568.344C557.741 568.018 557.524 567.745 557.284 567.523C557.044 567.302 556.665 567.058 556.146 566.791C555.627 566.524 555.199 566.316 554.862 566.166C554.525 566.016 554.006 565.805 553.306 565.531C552.8 565.323 552.402 565.16 552.11 565.043C551.818 564.926 551.419 564.753 550.914 564.525C550.408 564.298 550.003 564.096 549.698 563.92C549.393 563.744 549.027 563.513 548.599 563.227C548.171 562.94 547.824 562.663 547.558 562.396C547.293 562.13 547.011 561.811 546.712 561.439C546.414 561.068 546.184 560.691 546.022 560.307C545.86 559.923 545.724 559.49 545.613 559.008C545.503 558.526 545.448 558.018 545.448 557.484C545.448 555.687 546.083 554.112 547.354 552.758C548.625 551.404 550.278 550.531 552.314 550.141V546.625C552.314 546.456 552.376 546.309 552.499 546.186C552.622 546.062 552.768 546 552.937 546H555.562C555.744 546 555.893 546.059 556.01 546.176C556.126 546.293 556.185 546.443 556.185 546.625V550.062C556.924 550.141 557.64 550.29 558.334 550.512C559.028 550.733 559.592 550.951 560.026 551.166C560.461 551.381 560.872 551.625 561.261 551.898C561.65 552.172 561.903 552.361 562.02 552.465C562.137 552.569 562.234 552.66 562.312 552.738C562.532 552.973 562.565 553.22 562.409 553.48L560.834 556.332C560.73 556.527 560.581 556.632 560.386 556.645C560.205 556.684 560.03 556.638 559.861 556.508C559.822 556.469 559.728 556.391 559.579 556.273C559.43 556.156 559.177 555.984 558.82 555.756C558.464 555.528 558.084 555.32 557.682 555.131C557.281 554.942 556.797 554.773 556.233 554.623C555.669 554.473 555.115 554.398 554.57 554.398C553.338 554.398 552.334 554.678 551.556 555.238C550.777 555.798 550.388 556.521 550.388 557.406C550.388 557.745 550.444 558.057 550.554 558.344C550.664 558.63 550.855 558.9 551.128 559.154C551.4 559.408 551.656 559.623 551.896 559.799C552.136 559.975 552.499 560.176 552.985 560.404C553.471 560.632 553.864 560.808 554.162 560.932C554.46 561.055 554.914 561.234 555.523 561.469C556.211 561.729 556.736 561.934 557.099 562.084C557.462 562.234 557.955 562.462 558.577 562.768C559.2 563.074 559.689 563.35 560.046 563.598C560.402 563.845 560.804 564.171 561.252 564.574C561.699 564.978 562.043 565.391 562.283 565.814C562.522 566.238 562.727 566.736 562.895 567.309C563.064 567.882 563.148 568.493 563.148 569.145Z" fill="black"/>
<g filter="url(#filter3_d_35_287)">
<circle cx="375.5" cy="450.5" r="35.5" fill="white"/>
</g>
<path d="M368.275 437.437C369.21 437.693 370.146 437.863 371.082 438.119C372.018 438.374 372.954 438.544 373.889 438.8C374.145 438.885 374.23 438.8 374.315 438.544C374.655 437.097 374.995 435.735 375.336 434.287C375.421 434.032 375.506 433.947 375.761 434.032C376.612 434.287 377.377 434.458 378.228 434.628C378.483 434.713 378.483 434.798 378.398 434.968C378.058 436.331 377.718 437.778 377.377 439.14C377.377 439.225 377.377 439.31 377.292 439.481C377.973 439.651 378.739 439.821 379.419 439.992C379.504 439.992 379.589 439.821 379.674 439.736C379.93 438.629 380.185 437.608 380.525 436.501L380.78 435.479C380.78 435.309 380.865 435.224 381.036 435.309C381.886 435.564 382.737 435.735 383.673 435.99C383.758 435.99 383.758 436.075 383.843 436.075C383.588 437.182 383.333 438.204 383.077 439.225C382.992 439.651 382.907 440.077 382.737 440.502C382.652 440.758 382.737 440.843 382.992 440.928L385.8 442.205C386.65 442.716 387.416 443.397 388.012 444.248C388.777 445.526 388.862 446.888 388.522 448.25C388.267 449.187 387.927 450.038 387.246 450.719C386.736 451.23 386.055 451.57 385.374 451.826C385.289 451.826 385.204 451.911 385.034 451.911C385.374 452.166 385.715 452.337 386.055 452.592C387.076 453.358 387.756 454.295 388.097 455.487C388.267 456.423 388.182 457.445 387.927 458.381C387.586 459.573 387.161 460.595 386.395 461.532C385.459 462.638 384.268 463.234 382.907 463.405C381.121 463.66 379.419 463.49 377.718 463.234C377.463 463.149 377.292 463.234 377.207 463.49C376.867 464.852 376.527 466.299 376.186 467.661C376.101 468.002 376.101 468.087 375.676 467.917C374.91 467.747 374.06 467.491 373.294 467.321C373.039 467.236 373.039 467.151 373.124 466.98C373.464 465.533 373.804 464.086 374.23 462.723C374.23 462.553 374.315 462.468 374.145 462.383C373.464 462.213 372.783 462.042 372.018 461.872C371.848 462.638 371.592 463.405 371.422 464.171C371.252 464.937 370.997 465.703 370.827 466.47C370.742 466.64 370.742 466.725 370.486 466.64C369.636 466.384 368.785 466.214 367.934 466.044C367.679 465.959 367.679 465.874 367.764 465.703C368.104 464.256 368.445 462.809 368.87 461.446C368.87 461.361 368.955 461.276 368.955 461.106C366.998 460.595 365.042 460.084 363 459.573C363.17 459.233 363.255 458.977 363.425 458.637C363.766 457.871 364.106 457.104 364.361 456.423C364.446 456.168 364.531 456.168 364.787 456.168C365.382 456.338 366.063 456.508 366.658 456.594C367.339 456.764 367.849 456.423 367.934 455.827C369.04 451.485 370.146 447.143 371.167 442.716C371.337 442.035 370.912 441.269 370.146 441.013C369.381 440.758 368.615 440.588 367.934 440.417C367.764 440.417 367.679 440.332 367.764 440.162C368.019 439.225 368.275 438.204 368.53 437.267C368.189 437.523 368.189 437.523 368.275 437.437ZM372.613 458.467C372.698 458.467 372.783 458.552 372.783 458.552C374.145 458.892 375.591 459.318 377.037 459.403C378.058 459.488 378.994 459.488 379.93 459.148C381.546 458.637 382.227 456.508 381.291 455.146C380.865 454.465 380.185 454.039 379.504 453.614C377.973 452.762 376.186 452.422 374.485 452.081C374.23 451.996 374.23 452.081 374.145 452.337C373.975 453.188 373.719 453.954 373.549 454.806C373.209 455.998 372.954 457.189 372.613 458.467ZM379.76 449.782C379.93 449.782 380.355 449.697 380.695 449.612C382.312 449.272 383.162 447.399 382.312 445.951C381.886 445.185 381.121 444.674 380.355 444.334C379.164 443.823 377.973 443.567 376.697 443.227C376.442 443.142 376.357 443.227 376.271 443.482C375.846 445.27 375.421 446.973 374.91 448.761C374.825 448.931 374.91 449.016 375.08 449.101C375.421 449.187 375.676 449.272 376.016 449.357C377.292 449.527 378.398 449.782 379.76 449.782Z" fill="black"/>
<g filter="url(#filter4_d_35_287)">
<circle cx="515.5" cy="313.5" r="35.5" fill="white"/>
</g>
<path d="M516 332L499 322.75V304.25L516 295L533 304.25V322.75L516 332ZM504.714 319.641L516 325.779L527.286 319.641V307.359L516 301.221L504.714 307.359V319.641Z" fill="black"/>
<g filter="url(#filter5_d_35_287)">
<circle cx="184.5" cy="563.5" r="35.5" fill="white"/>
</g>
<path d="M185 582L168 572.75V554.25L185 545L202 554.25V572.75L185 582ZM173.714 569.641L185 575.779L196.286 569.641V557.359L185 551.221L173.714 557.359V569.641Z" fill="black"/>
<g filter="url(#filter6_d_35_287)">
<circle cx="235.5" cy="309.5" r="35.5" fill="white"/>
</g>
<path d="M228.89 306.958L235.804 300.047L242.721 306.964L246.741 302.94L235.804 292L224.867 302.937L228.89 306.958Z" fill="black"/>
<path d="M218 309.801L222.021 305.777L226.044 309.801L222.021 313.822L218 309.801Z" fill="black"/>
<path d="M228.89 312.641L235.804 319.555L242.721 312.638L246.744 316.657L235.807 327.596L224.866 316.664L228.89 312.641Z" fill="black"/>
<path d="M245.555 309.801L249.576 305.777L253.6 309.798L249.576 313.825L245.555 309.801Z" fill="black"/>
<path d="M239.884 309.799L235.804 305.716L232.787 308.733L232.438 309.079L231.724 309.793L235.804 313.87L239.884 309.801V309.799Z" fill="black"/>
<g filter="url(#filter7_d_35_287)">
<circle cx="194.5" cy="183.5" r="35.5" fill="white"/>
</g>
<path d="M198.378 171.104C199.005 170.407 199.483 169.597 199.784 168.721C200.086 167.845 200.205 166.92 200.135 166C198.211 166.15 196.425 167.023 195.161 168.432C194.556 169.107 194.098 169.892 193.813 170.742C193.528 171.591 193.423 172.486 193.503 173.376C194.442 173.383 195.37 173.182 196.215 172.788C197.06 172.394 197.8 171.818 198.378 171.104ZM202.556 183.007C202.567 181.781 202.902 180.578 203.529 179.511C204.155 178.445 205.053 177.55 206.138 176.911C205.453 175.96 204.549 175.175 203.495 174.62C202.442 174.064 201.269 173.753 200.069 173.711C197.483 173.456 195.095 175.167 193.719 175.167C192.342 175.167 190.402 173.743 188.247 173.775C186.838 173.82 185.465 174.217 184.262 174.926C183.059 175.636 182.067 176.634 181.382 177.823C178.464 182.719 180.636 189.998 183.554 193.95C184.881 195.886 186.539 198.078 188.728 197.998C190.916 197.918 191.629 196.686 194.166 196.686C196.703 196.686 197.483 197.998 199.638 197.95C201.794 197.902 203.319 195.966 204.712 194.03C205.698 192.625 206.469 191.089 207 189.47C205.686 188.93 204.565 188.029 203.775 186.881C202.985 185.732 202.562 184.385 202.556 183.007Z" fill="black"/>
<g filter="url(#filter8_d_35_287)">
<circle cx="561.5" cy="191.5" r="35.5" fill="white"/>
</g>
<g clip-path="url(#clip0_35_287)">
<path d="M562.406 190.594H576V177.906C576 177.666 575.905 177.435 575.735 177.265C575.565 177.095 575.334 177 575.094 177H562.406V190.594Z" fill="black"/>
<path d="M560.594 190.594V177H547.906C547.666 177 547.435 177.095 547.265 177.265C547.095 177.435 547 177.666 547 177.906V190.594H560.594Z" fill="black"/>
<path d="M560.594 192.406H547V205.094C547 205.334 547.095 205.565 547.265 205.735C547.435 205.905 547.666 206 547.906 206H560.594V192.406Z" fill="#040404"/>
<path d="M562.406 192.406V206H575.094C575.334 206 575.565 205.905 575.735 205.735C575.905 205.565 576 205.334 576 205.094V192.406H562.406Z" fill="black"/>
</g>
<g filter="url(#filter9_d_35_287)">
<circle cx="214.5" cy="470.5" r="35.5" fill="white"/>
</g>
<path d="M214.5 455C209.943 455.019 204.651 455.788 199 458.034C199 458.034 199.252 458.712 199.868 459.837C205.037 457.569 210.089 456.854 214.5 456.886V456.89C218.911 456.851 223.963 457.572 229.132 459.835C229.823 458.584 230 458.033 230 458.033C224.349 455.791 219.057 455.019 214.5 455Z" fill="black"/>
<path d="M210.133 461.502L214.501 486L218.842 461.507C222.975 461.507 224.277 461.961 224.466 463.82C224.466 463.82 227.242 462.784 228.639 460.67C223.181 458.134 217.697 458.017 217.697 458.017L214.501 461.926V461.929H214.495L214.501 461.926L211.304 458.023C211.304 458.023 205.821 458.14 200.363 460.678C201.762 462.79 204.534 463.817 204.534 463.817C204.724 461.96 206.026 461.502 210.133 461.502V461.502Z" fill="black"/>
<g filter="url(#filter10_d_35_287)">
<circle cx="551.5" cy="449.5" r="35.5" fill="white"/>
</g>
<path d="M560.386 441.667H556.818C556.507 440.453 555.957 439.318 555.203 438.333H560.386C560.814 438.333 561.224 438.158 561.527 437.845C561.83 437.533 562 437.109 562 436.667C562 436.225 561.83 435.801 561.527 435.488C561.224 435.176 560.814 435 560.386 435H542.627C542.199 435 541.788 435.176 541.485 435.488C541.183 435.801 541.012 436.225 541.012 436.667C541.012 437.109 541.183 437.533 541.485 437.845C541.788 438.158 542.199 438.333 542.627 438.333H548.277C549.343 438.337 550.386 438.652 551.286 439.242C552.186 439.832 552.906 440.672 553.363 441.667H542.627C542.199 441.667 541.788 441.842 541.485 442.155C541.183 442.467 541.012 442.891 541.012 443.333C541.012 443.775 541.183 444.199 541.485 444.512C541.788 444.824 542.199 445 542.627 445H553.928C553.734 446.384 553.065 447.651 552.043 448.569C551.021 449.486 549.713 449.994 548.358 450H542.627C542.552 449.992 542.476 449.992 542.401 450C542.294 449.983 542.185 449.983 542.078 450C541.968 450.039 541.864 450.095 541.771 450.167L541.578 450.283C541.489 450.366 541.413 450.461 541.352 450.567C541.297 450.641 541.249 450.719 541.206 450.8C541.192 450.899 541.192 451.001 541.206 451.1C541.091 451.266 541.024 451.463 541.012 451.667C541.005 451.744 541.005 451.822 541.012 451.9C540.996 452.01 540.996 452.123 541.012 452.233C541.05 452.347 541.104 452.454 541.174 452.55C541.174 452.55 541.174 452.683 541.287 452.75L550.973 464.417C551.252 464.753 551.648 464.961 552.075 464.995C552.502 465.029 552.924 464.887 553.25 464.6C553.575 464.313 553.777 463.904 553.81 463.463C553.843 463.022 553.706 462.586 553.427 462.25L546.146 453.333H548.277C550.499 453.343 552.643 452.492 554.287 450.949C555.931 449.407 556.955 447.284 557.157 445H560.386C560.814 445 561.224 444.824 561.527 444.512C561.83 444.199 562 443.775 562 443.333C562 442.891 561.83 442.467 561.527 442.155C561.224 441.842 560.814 441.667 560.386 441.667Z" fill="black"/>
<g filter="url(#filter11_d_35_287)">
<circle cx="66.5" cy="309.5" r="35.5" fill="white"/>
</g>
<path d="M73.6964 320.001L74.4386 323.373C74.481 323.542 74.4598 323.701 74.375 323.85C74.2902 323.998 74.17 324.101 74.0145 324.157L73.9085 324.179C73.8519 324.207 73.7777 324.232 73.6858 324.253C73.5939 324.274 73.4808 324.306 73.3465 324.348C73.2122 324.391 73.0603 324.43 72.8906 324.465C72.721 324.5 72.5407 324.536 72.3499 324.571C72.159 324.606 71.947 324.642 71.7137 324.677C71.4805 324.712 71.2437 324.744 71.0033 324.772C70.763 324.801 70.505 324.822 70.2294 324.836C69.9537 324.85 69.6815 324.857 69.4129 324.857C66.1049 324.857 63.2139 323.935 60.74 322.09C58.266 320.245 56.5837 317.76 55.6931 314.636H53.6786C53.4948 314.636 53.3358 314.569 53.2015 314.435C53.0672 314.3 53 314.141 53 313.958V311.561C53 311.378 53.0672 311.219 53.2015 311.084C53.3358 310.95 53.4948 310.883 53.6786 310.883H55.0781C55.0499 310.077 55.0569 309.335 55.0993 308.656H53.6786C53.4807 308.656 53.3181 308.593 53.1908 308.465C53.0636 308.338 53 308.176 53 307.978V305.56C53 305.362 53.0636 305.2 53.1908 305.073C53.3181 304.945 53.4807 304.882 53.6786 304.882H55.7567C56.7039 301.913 58.425 299.524 60.9202 297.714C63.4154 295.905 66.2463 295 69.4129 295C70.8549 295 72.2262 295.163 73.5268 295.488C73.6823 295.53 73.8237 295.636 73.9509 295.806C74.0357 295.961 74.0569 296.131 74.0145 296.315L73.1027 299.686C73.0603 299.87 72.9613 300.008 72.8058 300.1C72.6503 300.192 72.4807 300.209 72.2969 300.153L72.2121 300.132C72.1555 300.118 72.0742 300.1 71.9682 300.079L71.5971 300.004L71.12 299.93L70.5686 299.867L69.9537 299.814L69.3281 299.792C67.5469 299.792 65.9494 300.245 64.5357 301.15C63.122 302.054 62.0618 303.298 61.3549 304.882H71.279C71.5052 304.882 71.6819 304.967 71.8092 305.136C71.9505 305.306 72 305.49 71.9576 305.687L71.4487 308.105C71.378 308.472 71.1518 308.656 70.7701 308.656H60.4219C60.3795 309.179 60.3795 309.922 60.4219 310.883H70.1551C70.3672 310.883 70.5439 310.968 70.6853 311.137C70.8125 311.307 70.8549 311.498 70.8125 311.71L70.3036 314.085C70.2753 314.24 70.1975 314.371 70.0703 314.477C69.9431 314.583 69.8017 314.636 69.6462 314.636H61.4397C62.1183 316.29 63.175 317.601 64.6099 318.57C66.0448 319.538 67.66 320.022 69.4554 320.022C69.7098 320.022 69.9643 320.012 70.2188 319.991C70.4732 319.969 70.71 319.945 70.9291 319.916C71.1483 319.888 71.3568 319.856 71.5547 319.821C71.7526 319.786 71.9258 319.75 72.0742 319.715C72.2227 319.68 72.3534 319.648 72.4665 319.619L72.721 319.556L72.827 319.513C73.0108 319.443 73.1946 319.457 73.3783 319.556C73.548 319.655 73.654 319.803 73.6964 320.001Z" fill="black"/>
<g filter="url(#filter12_d_35_287)">
<circle cx="684.5" cy="313.5" r="35.5" fill="white"/>
</g>
<g filter="url(#filter13_d_35_287)">
<circle cx="684.5" cy="313.5" r="35.5" fill="white"/>
</g>
<circle cx="684.5" cy="313.5" r="35.5" fill="white"/>
<circle cx="684.5" cy="313.5" r="35.5" fill="white"/>
<path d="M670 329.407V322.252H674.174V305.899H670V299H687.461C688.653 299 689.845 299.341 690.953 299.767C693.167 300.618 695.126 301.896 696.659 303.77C698.022 305.388 698.959 307.262 699.47 309.391C700.322 312.968 700.322 316.631 699.3 320.208C697.937 324.893 695.041 328.044 690.101 329.151C689.249 329.322 688.312 329.407 687.461 329.492H670.681C670.426 329.407 670.256 329.407 670 329.407ZM682.691 322.252C683.628 322.252 684.565 322.338 685.502 322.252C686.694 322.167 687.801 321.741 688.568 320.719C689.249 319.868 689.845 318.931 690.186 317.909C690.868 315.609 690.612 313.309 690.101 311.009C689.845 309.647 689.164 308.369 688.312 307.347C687.801 306.751 687.12 306.069 686.353 305.984C685.161 305.729 683.883 305.899 682.691 305.899V322.252Z" fill="black"/>
<path d="M670 329.407V322.252H674.174V305.899H670V299H687.461C688.653 299 689.845 299.341 690.953 299.767C693.167 300.618 695.126 301.896 696.659 303.77C698.022 305.388 698.959 307.262 699.47 309.391C700.322 312.968 700.322 316.631 699.3 320.208C697.937 324.893 695.041 328.044 690.101 329.151C689.249 329.322 688.312 329.407 687.461 329.492H670.681C670.426 329.407 670.256 329.407 670 329.407ZM682.691 322.252C683.628 322.252 684.565 322.338 685.502 322.252C686.694 322.167 687.801 321.741 688.568 320.719C689.249 319.868 689.845 318.931 690.186 317.909C690.868 315.609 690.612 313.309 690.101 311.009C689.845 309.647 689.164 308.369 688.312 307.347C687.801 306.751 687.12 306.069 686.353 305.984C685.161 305.729 683.883 305.899 682.691 305.899V322.252Z" fill="black"/>
<g filter="url(#filter14_d_35_287)">
<circle cx="190.5" cy="67.5" r="35.5" fill="white"/>
</g>
<path d="M173.076 67.2C173.076 65.4667 173.451 63.925 174.201 62.575C174.951 61.2083 175.993 60.15 177.326 59.4C178.676 58.6333 180.201 58.25 181.901 58.25C183.984 58.25 185.768 58.8 187.251 59.9C188.734 61 189.726 62.5 190.226 64.4H185.526C185.176 63.6667 184.676 63.1083 184.026 62.725C183.393 62.3417 182.668 62.15 181.851 62.15C180.534 62.15 179.468 62.6083 178.651 63.525C177.834 64.4417 177.426 65.6667 177.426 67.2C177.426 68.7333 177.834 69.9583 178.651 70.875C179.468 71.7917 180.534 72.25 181.851 72.25C182.668 72.25 183.393 72.0583 184.026 71.675C184.676 71.2917 185.176 70.7333 185.526 70H190.226C189.726 71.9 188.734 73.4 187.251 74.5C185.768 75.5833 183.984 76.125 181.901 76.125C180.201 76.125 178.676 75.75 177.326 75C175.993 74.2333 174.951 73.175 174.201 71.825C173.451 70.475 173.076 68.9333 173.076 67.2ZM206.119 70.9C206.119 71.8167 205.877 72.6667 205.394 73.45C204.927 74.2167 204.227 74.85 203.294 75.35C202.377 75.8333 201.286 76.1 200.019 76.15V78.175H198.419V76.125C196.652 75.975 195.227 75.45 194.144 74.55C193.061 73.6333 192.486 72.3917 192.419 70.825H196.969C197.069 71.825 197.552 72.4667 198.419 72.75V68.8C197.119 68.4667 196.077 68.1417 195.294 67.825C194.527 67.5083 193.852 67 193.269 66.3C192.686 65.6 192.394 64.6417 192.394 63.425C192.394 61.9083 192.952 60.6917 194.069 59.775C195.202 58.8583 196.652 58.3417 198.419 58.225V56.2H200.019V58.225C201.769 58.3583 203.152 58.8667 204.169 59.75C205.186 60.6333 205.752 61.8583 205.869 63.425H201.294C201.194 62.525 200.769 61.9417 200.019 61.675V65.55C201.402 65.9333 202.469 66.275 203.219 66.575C203.969 66.875 204.636 67.375 205.219 68.075C205.819 68.7583 206.119 69.7 206.119 70.9ZM196.919 63.225C196.919 63.6417 197.044 63.9917 197.294 64.275C197.561 64.5583 197.936 64.8083 198.419 65.025V61.55C197.952 61.6333 197.586 61.8167 197.319 62.1C197.052 62.3667 196.919 62.7417 196.919 63.225ZM200.019 72.825C200.519 72.7417 200.911 72.5417 201.194 72.225C201.494 71.9083 201.644 71.5167 201.644 71.05C201.644 70.6167 201.502 70.2667 201.219 70C200.952 69.7167 200.552 69.475 200.019 69.275V72.825Z" fill="black"/>
<g filter="url(#filter15_d_35_287)">
<circle cx="551.5" cy="66.5" r="35.5" fill="white"/>
</g>
<g clip-path="url(#clip1_35_287)">
<path d="M574.05 67.4305C574.05 65.5459 573.897 64.1707 573.564 62.7445H551.95V71.2506H564.637C564.381 73.3645 563 76.548 559.93 78.6872L559.887 78.972L566.722 84.2432L567.195 84.2902C571.543 80.2917 574.05 74.4087 574.05 67.4305" fill="black"/>
<path d="M551.95 89.8421C558.165 89.8421 563.383 87.8045 567.195 84.2901L559.93 78.6871C557.986 80.0369 555.377 80.9792 551.95 80.9792C545.862 80.9792 540.695 76.9808 538.853 71.4543L538.583 71.4772L531.477 76.9528L531.384 77.21C535.169 84.6974 542.946 89.8421 551.95 89.8421Z" fill="black"/>
<path d="M538.853 71.4541C538.367 70.0279 538.086 68.4998 538.086 66.9208C538.086 65.3417 538.367 63.8137 538.827 62.3875L538.814 62.0838L531.619 56.5203L531.384 56.6318C529.824 59.7389 528.928 63.228 528.928 66.9208C528.928 70.6136 529.824 74.1026 531.384 77.2097L538.853 71.4541" fill="black"/>
<path d="M551.95 52.8627C556.272 52.8627 559.188 54.7219 560.851 56.2755L567.348 49.9595C563.358 46.2666 558.165 44 551.95 44C542.946 44 535.169 49.1445 531.384 56.6319L538.827 62.3877C540.695 56.8612 545.862 52.8627 551.95 52.8627" fill="black"/>
</g>
<defs>
<filter id="filter0_d_35_287" x="309" y="247" width="141" height="141" filterUnits="userSpaceOnUse" color-interpolation-filters="sRGB">
<feFlood flood-opacity="0" result="BackgroundImageFix"/>
<feColorMatrix in="SourceAlpha" type="matrix" values="0 0 0 0 0 0 0 0 0 0 0 0 0 0 0 0 0 0 127 0" result="hardAlpha"/>
<feMorphology radius="7" operator="dilate" in="SourceAlpha" result="effect1_dropShadow_35_287"/>
<feOffset dx="4" dy="4"/>
<feGaussianBlur stdDeviation="14"/>
<feComposite in2="hardAlpha" operator="out"/>
<feColorMatrix type="matrix" values="0 0 0 0 0 0 0 0 0 0 0 0 0 0 0 0 0 0 0.1 0"/>
<feBlend mode="normal" in2="BackgroundImageFix" result="effect1_dropShadow_35_287"/>
<feBlend mode="normal" in="SourceGraphic" in2="effect1_dropShadow_35_287" result="shape"/>
</filter>
<filter id="filter1_d_35_287" x="308" y="107" width="141" height="141" filterUnits="userSpaceOnUse" color-interpolation-filters="sRGB">
<feFlood flood-opacity="0" result="BackgroundImageFix"/>
<feColorMatrix in="SourceAlpha" type="matrix" values="0 0 0 0 0 0 0 0 0 0 0 0 0 0 0 0 0 0 127 0" result="hardAlpha"/>
<feMorphology radius="7" operator="dilate" in="SourceAlpha" result="effect1_dropShadow_35_287"/>
<feOffset dx="4" dy="4"/>
<feGaussianBlur stdDeviation="14"/>
<feComposite in2="hardAlpha" operator="out"/>
<feColorMatrix type="matrix" values="0 0 0 0 0 0 0 0 0 0 0 0 0 0 0 0 0 0 0.1 0"/>
<feBlend mode="normal" in2="BackgroundImageFix" result="effect1_dropShadow_35_287"/>
<feBlend mode="normal" in="SourceGraphic" in2="effect1_dropShadow_35_287" result="shape"/>
</filter>
<filter id="filter2_d_35_287" x="487" y="497" width="141" height="141" filterUnits="userSpaceOnUse" color-interpolation-filters="sRGB">
<feFlood flood-opacity="0" result="BackgroundImageFix"/>
<feColorMatrix in="SourceAlpha" type="matrix" values="0 0 0 0 0 0 0 0 0 0 0 0 0 0 0 0 0 0 127 0" result="hardAlpha"/>
<feMorphology radius="7" operator="dilate" in="SourceAlpha" result="effect1_dropShadow_35_287"/>
<feOffset dx="4" dy="4"/>
<feGaussianBlur stdDeviation="14"/>
<feComposite in2="hardAlpha" operator="out"/>
<feColorMatrix type="matrix" values="0 0 0 0 0 0 0 0 0 0 0 0 0 0 0 0 0 0 0.1 0"/>
<feBlend mode="normal" in2="BackgroundImageFix" result="effect1_dropShadow_35_287"/>
<feBlend mode="normal" in="SourceGraphic" in2="effect1_dropShadow_35_287" result="shape"/>
</filter>
<filter id="filter3_d_35_287" x="309" y="384" width="141" height="141" filterUnits="userSpaceOnUse" color-interpolation-filters="sRGB">
<feFlood flood-opacity="0" result="BackgroundImageFix"/>
<feColorMatrix in="SourceAlpha" type="matrix" values="0 0 0 0 0 0 0 0 0 0 0 0 0 0 0 0 0 0 127 0" result="hardAlpha"/>
<feMorphology radius="7" operator="dilate" in="SourceAlpha" result="effect1_dropShadow_35_287"/>
<feOffset dx="4" dy="4"/>
<feGaussianBlur stdDeviation="14"/>
<feComposite in2="hardAlpha" operator="out"/>
<feColorMatrix type="matrix" values="0 0 0 0 0 0 0 0 0 0 0 0 0 0 0 0 0 0 0.1 0"/>
<feBlend mode="normal" in2="BackgroundImageFix" result="effect1_dropShadow_35_287"/>
<feBlend mode="normal" in="SourceGraphic" in2="effect1_dropShadow_35_287" result="shape"/>
</filter>
<filter id="filter4_d_35_287" x="449" y="247" width="141" height="141" filterUnits="userSpaceOnUse" color-interpolation-filters="sRGB">
<feFlood flood-opacity="0" result="BackgroundImageFix"/>
<feColorMatrix in="SourceAlpha" type="matrix" values="0 0 0 0 0 0 0 0 0 0 0 0 0 0 0 0 0 0 127 0" result="hardAlpha"/>
<feMorphology radius="7" operator="dilate" in="SourceAlpha" result="effect1_dropShadow_35_287"/>
<feOffset dx="4" dy="4"/>
<feGaussianBlur stdDeviation="14"/>
<feComposite in2="hardAlpha" operator="out"/>
<feColorMatrix type="matrix" values="0 0 0 0 0 0 0 0 0 0 0 0 0 0 0 0 0 0 0.1 0"/>
<feBlend mode="normal" in2="BackgroundImageFix" result="effect1_dropShadow_35_287"/>
<feBlend mode="normal" in="SourceGraphic" in2="effect1_dropShadow_35_287" result="shape"/>
</filter>
<filter id="filter5_d_35_287" x="118" y="497" width="141" height="141" filterUnits="userSpaceOnUse" color-interpolation-filters="sRGB">
<feFlood flood-opacity="0" result="BackgroundImageFix"/>
<feColorMatrix in="SourceAlpha" type="matrix" values="0 0 0 0 0 0 0 0 0 0 0 0 0 0 0 0 0 0 127 0" result="hardAlpha"/>
<feMorphology radius="7" operator="dilate" in="SourceAlpha" result="effect1_dropShadow_35_287"/>
<feOffset dx="4" dy="4"/>
<feGaussianBlur stdDeviation="14"/>
<feComposite in2="hardAlpha" operator="out"/>
<feColorMatrix type="matrix" values="0 0 0 0 0 0 0 0 0 0 0 0 0 0 0 0 0 0 0.1 0"/>
<feBlend mode="normal" in2="BackgroundImageFix" result="effect1_dropShadow_35_287"/>
<feBlend mode="normal" in="SourceGraphic" in2="effect1_dropShadow_35_287" result="shape"/>
</filter>
<filter id="filter6_d_35_287" x="169" y="243" width="141" height="141" filterUnits="userSpaceOnUse" color-interpolation-filters="sRGB">
<feFlood flood-opacity="0" result="BackgroundImageFix"/>
<feColorMatrix in="SourceAlpha" type="matrix" values="0 0 0 0 0 0 0 0 0 0 0 0 0 0 0 0 0 0 127 0" result="hardAlpha"/>
<feMorphology radius="7" operator="dilate" in="SourceAlpha" result="effect1_dropShadow_35_287"/>
<feOffset dx="4" dy="4"/>
<feGaussianBlur stdDeviation="14"/>
<feComposite in2="hardAlpha" operator="out"/>
<feColorMatrix type="matrix" values="0 0 0 0 0 0 0 0 0 0 0 0 0 0 0 0 0 0 0.1 0"/>
<feBlend mode="normal" in2="BackgroundImageFix" result="effect1_dropShadow_35_287"/>
<feBlend mode="normal" in="SourceGraphic" in2="effect1_dropShadow_35_287" result="shape"/>
</filter>
<filter id="filter7_d_35_287" x="128" y="117" width="141" height="141" filterUnits="userSpaceOnUse" color-interpolation-filters="sRGB">
<feFlood flood-opacity="0" result="BackgroundImageFix"/>
<feColorMatrix in="SourceAlpha" type="matrix" values="0 0 0 0 0 0 0 0 0 0 0 0 0 0 0 0 0 0 127 0" result="hardAlpha"/>
<feMorphology radius="7" operator="dilate" in="SourceAlpha" result="effect1_dropShadow_35_287"/>
<feOffset dx="4" dy="4"/>
<feGaussianBlur stdDeviation="14"/>
<feComposite in2="hardAlpha" operator="out"/>
<feColorMatrix type="matrix" values="0 0 0 0 0 0 0 0 0 0 0 0 0 0 0 0 0 0 0.1 0"/>
<feBlend mode="normal" in2="BackgroundImageFix" result="effect1_dropShadow_35_287"/>
<feBlend mode="normal" in="SourceGraphic" in2="effect1_dropShadow_35_287" result="shape"/>
</filter>
<filter id="filter8_d_35_287" x="495" y="125" width="141" height="141" filterUnits="userSpaceOnUse" color-interpolation-filters="sRGB">
<feFlood flood-opacity="0" result="BackgroundImageFix"/>
<feColorMatrix in="SourceAlpha" type="matrix" values="0 0 0 0 0 0 0 0 0 0 0 0 0 0 0 0 0 0 127 0" result="hardAlpha"/>
<feMorphology radius="7" operator="dilate" in="SourceAlpha" result="effect1_dropShadow_35_287"/>
<feOffset dx="4" dy="4"/>
<feGaussianBlur stdDeviation="14"/>
<feComposite in2="hardAlpha" operator="out"/>
<feColorMatrix type="matrix" values="0 0 0 0 0 0 0 0 0 0 0 0 0 0 0 0 0 0 0.1 0"/>
<feBlend mode="normal" in2="BackgroundImageFix" result="effect1_dropShadow_35_287"/>
<feBlend mode="normal" in="SourceGraphic" in2="effect1_dropShadow_35_287" result="shape"/>
</filter>
<filter id="filter9_d_35_287" x="148" y="404" width="141" height="141" filterUnits="userSpaceOnUse" color-interpolation-filters="sRGB">
<feFlood flood-opacity="0" result="BackgroundImageFix"/>
<feColorMatrix in="SourceAlpha" type="matrix" values="0 0 0 0 0 0 0 0 0 0 0 0 0 0 0 0 0 0 127 0" result="hardAlpha"/>
<feMorphology radius="7" operator="dilate" in="SourceAlpha" result="effect1_dropShadow_35_287"/>
<feOffset dx="4" dy="4"/>
<feGaussianBlur stdDeviation="14"/>
<feComposite in2="hardAlpha" operator="out"/>
<feColorMatrix type="matrix" values="0 0 0 0 0 0 0 0 0 0 0 0 0 0 0 0 0 0 0.1 0"/>
<feBlend mode="normal" in2="BackgroundImageFix" result="effect1_dropShadow_35_287"/>
<feBlend mode="normal" in="SourceGraphic" in2="effect1_dropShadow_35_287" result="shape"/>
</filter>
<filter id="filter10_d_35_287" x="485" y="383" width="141" height="141" filterUnits="userSpaceOnUse" color-interpolation-filters="sRGB">
<feFlood flood-opacity="0" result="BackgroundImageFix"/>
<feColorMatrix in="SourceAlpha" type="matrix" values="0 0 0 0 0 0 0 0 0 0 0 0 0 0 0 0 0 0 127 0" result="hardAlpha"/>
<feMorphology radius="7" operator="dilate" in="SourceAlpha" result="effect1_dropShadow_35_287"/>
<feOffset dx="4" dy="4"/>
<feGaussianBlur stdDeviation="14"/>
<feComposite in2="hardAlpha" operator="out"/>
<feColorMatrix type="matrix" values="0 0 0 0 0 0 0 0 0 0 0 0 0 0 0 0 0 0 0.1 0"/>
<feBlend mode="normal" in2="BackgroundImageFix" result="effect1_dropShadow_35_287"/>
<feBlend mode="normal" in="SourceGraphic" in2="effect1_dropShadow_35_287" result="shape"/>
</filter>
<filter id="filter11_d_35_287" x="0" y="243" width="141" height="141" filterUnits="userSpaceOnUse" color-interpolation-filters="sRGB">
<feFlood flood-opacity="0" result="BackgroundImageFix"/>
<feColorMatrix in="SourceAlpha" type="matrix" values="0 0 0 0 0 0 0 0 0 0 0 0 0 0 0 0 0 0 127 0" result="hardAlpha"/>
<feMorphology radius="7" operator="dilate" in="SourceAlpha" result="effect1_dropShadow_35_287"/>
<feOffset dx="4" dy="4"/>
<feGaussianBlur stdDeviation="14"/>
<feComposite in2="hardAlpha" operator="out"/>
<feColorMatrix type="matrix" values="0 0 0 0 0 0 0 0 0 0 0 0 0 0 0 0 0 0 0.1 0"/>
<feBlend mode="normal" in2="BackgroundImageFix" result="effect1_dropShadow_35_287"/>
<feBlend mode="normal" in="SourceGraphic" in2="effect1_dropShadow_35_287" result="shape"/>
</filter>
<filter id="filter12_d_35_287" x="618" y="247" width="141" height="141" filterUnits="userSpaceOnUse" color-interpolation-filters="sRGB">
<feFlood flood-opacity="0" result="BackgroundImageFix"/>
<feColorMatrix in="SourceAlpha" type="matrix" values="0 0 0 0 0 0 0 0 0 0 0 0 0 0 0 0 0 0 127 0" result="hardAlpha"/>
<feMorphology radius="7" operator="dilate" in="SourceAlpha" result="effect1_dropShadow_35_287"/>
<feOffset dx="4" dy="4"/>
<feGaussianBlur stdDeviation="14"/>
<feComposite in2="hardAlpha" operator="out"/>
<feColorMatrix type="matrix" values="0 0 0 0 0 0 0 0 0 0 0 0 0 0 0 0 0 0 0.1 0"/>
<feBlend mode="normal" in2="BackgroundImageFix" result="effect1_dropShadow_35_287"/>
<feBlend mode="normal" in="SourceGraphic" in2="effect1_dropShadow_35_287" result="shape"/>
</filter>
<filter id="filter13_d_35_287" x="618" y="247" width="141" height="141" filterUnits="userSpaceOnUse" color-interpolation-filters="sRGB">
<feFlood flood-opacity="0" result="BackgroundImageFix"/>
<feColorMatrix in="SourceAlpha" type="matrix" values="0 0 0 0 0 0 0 0 0 0 0 0 0 0 0 0 0 0 127 0" result="hardAlpha"/>
<feMorphology radius="7" operator="dilate" in="SourceAlpha" result="effect1_dropShadow_35_287"/>
<feOffset dx="4" dy="4"/>
<feGaussianBlur stdDeviation="14"/>
<feComposite in2="hardAlpha" operator="out"/>
<feColorMatrix type="matrix" values="0 0 0 0 0 0 0 0 0 0 0 0 0 0 0 0 0 0 0.1 0"/>
<feBlend mode="normal" in2="BackgroundImageFix" result="effect1_dropShadow_35_287"/>
<feBlend mode="normal" in="SourceGraphic" in2="effect1_dropShadow_35_287" result="shape"/>
</filter>
<filter id="filter14_d_35_287" x="124" y="1" width="141" height="141" filterUnits="userSpaceOnUse" color-interpolation-filters="sRGB">
<feFlood flood-opacity="0" result="BackgroundImageFix"/>
<feColorMatrix in="SourceAlpha" type="matrix" values="0 0 0 0 0 0 0 0 0 0 0 0 0 0 0 0 0 0 127 0" result="hardAlpha"/>
<feMorphology radius="7" operator="dilate" in="SourceAlpha" result="effect1_dropShadow_35_287"/>
<feOffset dx="4" dy="4"/>
<feGaussianBlur stdDeviation="14"/>
<feComposite in2="hardAlpha" operator="out"/>
<feColorMatrix type="matrix" values="0 0 0 0 0 0 0 0 0 0 0 0 0 0 0 0 0 0 0.1 0"/>
<feBlend mode="normal" in2="BackgroundImageFix" result="effect1_dropShadow_35_287"/>
<feBlend mode="normal" in="SourceGraphic" in2="effect1_dropShadow_35_287" result="shape"/>
</filter>
<filter id="filter15_d_35_287" x="485" y="0" width="141" height="141" filterUnits="userSpaceOnUse" color-interpolation-filters="sRGB">
<feFlood flood-opacity="0" result="BackgroundImageFix"/>
<feColorMatrix in="SourceAlpha" type="matrix" values="0 0 0 0 0 0 0 0 0 0 0 0 0 0 0 0 0 0 127 0" result="hardAlpha"/>
<feMorphology radius="7" operator="dilate" in="SourceAlpha" result="effect1_dropShadow_35_287"/>
<feOffset dx="4" dy="4"/>
<feGaussianBlur stdDeviation="14"/>
<feComposite in2="hardAlpha" operator="out"/>
<feColorMatrix type="matrix" values="0 0 0 0 0 0 0 0 0 0 0 0 0 0 0 0 0 0 0.1 0"/>
<feBlend mode="normal" in2="BackgroundImageFix" result="effect1_dropShadow_35_287"/>
<feBlend mode="normal" in="SourceGraphic" in2="effect1_dropShadow_35_287" result="shape"/>
</filter>
<clipPath id="clip0_35_287">
<rect width="29" height="29" fill="white" transform="translate(547 177)"/>
</clipPath>
<clipPath id="clip1_35_287">
<rect width="45.1481" height="46" fill="white" transform="translate(528.926 44)"/>
</clipPath>
</defs>
</svg>
