<svg width="775" height="775" viewBox="0 0 775 775" fill="none" xmlns="http://www.w3.org/2000/svg">
<g opacity="0.5" filter="url(#filter0_d_1_2)">
<circle cx="373.5" cy="373.5" r="274.5" fill="#EBEBEB"/>
</g>
<g opacity="0.5" filter="url(#filter1_d_1_2)">
<circle cx="373.5" cy="373.5" r="215.5" fill="#EFEFEF"/>
</g>
<g filter="url(#filter2_d_1_2)">
<circle cx="373.5" cy="373.5" r="163.78" fill="#F4F4F4"/>
</g>
<g filter="url(#filter3_d_1_2)">
<circle cx="373.5" cy="373.5" r="113.337" fill="#F5F5F5"/>
</g>
<g filter="url(#filter4_d_1_2)">
<circle cx="373.5" cy="373.5" r="60.9785" fill="white"/>
</g>
<path d="M375.463 382.914H372.461V376.401H365.981V373.624H372.461V367.174H375.463V373.624H381.943V376.401H375.463V382.914Z" fill="#EC255A"/>
<g filter="url(#filter5_d_1_2)">
<circle cx="362.645" cy="290.493" r="16.9207" fill="white"/>
</g>
<path fill-rule="evenodd" clip-rule="evenodd" d="M363.329 291.353C363.093 291.824 362.689 292.127 362.251 292.229C362.185 292.229 362.084 292.263 361.982 292.263C361.242 292.263 360.805 291.69 360.805 290.849C360.805 289.77 361.444 289.266 362.251 289.029C362.689 288.928 363.195 288.894 363.7 288.894V289.299C363.7 290.073 363.733 290.679 363.329 291.353ZM363.7 287.346C363.262 287.38 362.756 287.413 362.251 287.479C361.477 287.582 360.704 287.716 360.065 288.02C358.819 288.525 357.977 289.602 357.977 291.184C357.977 293.172 359.256 294.182 360.873 294.182C361.411 294.182 361.849 294.114 362.251 294.014C362.892 293.811 363.43 293.441 364.069 292.767C364.44 293.272 364.542 293.509 365.18 294.047C365.349 294.114 365.517 294.114 365.651 294.014C366.055 293.676 366.763 293.07 367.133 292.733C367.301 292.599 367.268 292.396 367.166 292.229C366.796 291.757 366.425 291.353 366.425 290.444V287.413C366.425 286.134 366.527 284.955 365.585 284.08C364.811 283.374 363.599 283.104 362.656 283.104H362.251C360.536 283.203 358.719 283.945 358.314 286.066C358.246 286.336 358.449 286.437 358.584 286.47L360.469 286.706C360.67 286.672 360.772 286.503 360.805 286.336C360.973 285.595 361.579 285.225 362.251 285.156H362.387C362.791 285.156 363.229 285.325 363.464 285.663C363.733 286.066 363.7 286.605 363.7 287.077V287.346Z" fill="black"/>
<path fill-rule="evenodd" clip-rule="evenodd" d="M370.508 294.526V294.525C370.501 294.366 370.468 294.245 370.401 294.145L370.394 294.135L370.386 294.125C370.319 294.052 370.254 294.024 370.184 293.993C369.975 293.912 369.671 293.869 369.306 293.869C369.043 293.869 368.753 293.894 368.462 293.958L368.461 293.937L368.167 294.035L368.162 294.038L367.996 294.092V294.099C367.806 294.178 367.627 294.279 367.461 294.4C367.359 294.476 367.274 294.577 367.27 294.733C367.27 294.778 367.28 294.823 367.299 294.864C367.318 294.905 367.346 294.942 367.381 294.971C367.419 295.001 367.463 295.023 367.51 295.036C367.557 295.049 367.606 295.052 367.654 295.045L367.669 295.044L367.68 295.042C367.823 295.012 368.032 294.991 368.277 294.957C368.487 294.933 368.709 294.917 368.902 294.917C369.038 294.916 369.161 294.925 369.245 294.943C369.281 294.95 369.317 294.962 369.349 294.978C369.356 295.006 369.359 295.034 369.357 295.063C369.359 295.224 369.291 295.524 369.197 295.816C369.105 296.109 368.994 296.402 368.921 296.597C368.901 296.644 368.891 296.694 368.891 296.745C368.889 296.823 368.922 296.918 368.99 296.981C369.056 297.044 369.142 297.069 369.214 297.069H369.218C369.325 297.068 369.417 297.025 369.496 296.963C370.24 296.294 370.499 295.224 370.51 294.622L370.508 294.526ZM368.301 295.454C368.223 295.454 368.145 295.471 368.074 295.505C367.993 295.537 367.909 295.575 367.83 295.608L367.715 295.657L367.564 295.717V295.719C365.927 296.383 364.208 296.772 362.617 296.806C362.559 296.808 362.5 296.808 362.443 296.808C359.941 296.809 357.9 295.649 355.841 294.505C355.774 294.468 355.7 294.448 355.623 294.447C355.531 294.447 355.436 294.482 355.367 294.547C355.332 294.58 355.304 294.619 355.286 294.663C355.267 294.707 355.257 294.755 355.257 294.802C355.256 294.927 355.324 295.042 355.418 295.116C357.35 296.795 359.469 298.354 362.318 298.356C362.374 298.356 362.43 298.354 362.486 298.354C364.299 298.313 366.348 297.7 367.939 296.701L367.949 296.695C368.162 296.567 368.367 296.426 368.561 296.271C368.683 296.181 368.768 296.039 368.768 295.892C368.762 295.631 368.541 295.454 368.301 295.454H368.301Z" fill="black"/>
<g filter="url(#filter6_d_1_2)">
<circle cx="453.953" cy="394.571" r="17.5593" fill="white"/>
</g>
<g clip-path="url(#clip0_1_2)">
<path d="M454.402 394.123H461.125V387.847C461.125 387.728 461.078 387.614 460.994 387.53C460.91 387.446 460.796 387.399 460.677 387.399H454.402V394.123Z" fill="black"/>
<path d="M453.505 394.123V387.399H447.229C447.111 387.399 446.997 387.446 446.912 387.53C446.828 387.614 446.781 387.728 446.781 387.847V394.123H453.505Z" fill="black"/>
<path d="M453.505 395.019H446.781V401.295C446.781 401.414 446.828 401.528 446.912 401.612C446.997 401.696 447.111 401.743 447.229 401.743H453.505V395.019Z" fill="#040404"/>
<path d="M454.402 395.019V401.743H460.677C460.796 401.743 460.91 401.696 460.994 401.612C461.078 401.528 461.125 401.414 461.125 401.295V395.019H454.402Z" fill="black"/>
</g>
<g filter="url(#filter7_d_1_2)">
<circle cx="194.715" cy="446.291" r="22.0289" fill="white"/>
</g>
<g clip-path="url(#clip1_1_2)">
<path d="M195.277 445.729H203.713V437.856C203.713 437.707 203.653 437.564 203.548 437.458C203.442 437.353 203.299 437.293 203.15 437.293H195.277V445.729Z" fill="black"/>
<path d="M194.152 445.729V437.293H186.279C186.13 437.293 185.987 437.353 185.882 437.458C185.776 437.564 185.717 437.707 185.717 437.856V445.729H194.152Z" fill="black"/>
<path d="M194.152 446.854H185.717V454.727C185.717 454.876 185.776 455.019 185.882 455.124C185.987 455.23 186.13 455.289 186.279 455.289H194.152V446.854Z" fill="#040404"/>
<path d="M195.277 446.854V455.289H203.15C203.299 455.289 203.442 455.23 203.548 455.124C203.653 455.019 203.713 454.876 203.713 454.727V446.854H195.277Z" fill="black"/>
</g>
<g filter="url(#filter8_d_1_2)">
<circle cx="294.962" cy="406.703" r="17.5593" fill="white"/>
</g>
<path d="M291.693 405.447L295.113 402.028L298.534 405.449L300.523 403.459L295.113 398.048L289.703 403.458L291.693 405.447Z" fill="black"/>
<path d="M286.306 406.853L288.295 404.862L290.285 406.853L288.295 408.842L286.306 406.853Z" fill="black"/>
<path d="M291.693 408.257L295.113 411.677L298.534 408.256L300.524 410.244L295.114 415.655L289.702 410.248L291.693 408.257Z" fill="black"/>
<path d="M299.936 406.853L301.925 404.862L303.915 406.851L301.925 408.843L299.936 406.853Z" fill="black"/>
<path d="M297.131 406.851L295.113 404.832L293.62 406.324L293.448 406.495L293.095 406.849L295.113 408.865L297.131 406.853V406.851Z" fill="black"/>
<g filter="url(#filter9_d_1_2)">
<circle cx="482.687" cy="289.216" r="15.6437" fill="white"/>
</g>
<path d="M479.503 283.459C479.915 283.572 480.327 283.647 480.74 283.759C481.152 283.872 481.565 283.947 481.977 284.059C482.089 284.097 482.127 284.059 482.164 283.947C482.314 283.309 482.464 282.709 482.614 282.071C482.652 281.958 482.689 281.921 482.802 281.958C483.177 282.071 483.514 282.146 483.889 282.221C484.001 282.258 484.001 282.296 483.964 282.371C483.814 282.971 483.664 283.609 483.514 284.209C483.514 284.247 483.514 284.284 483.476 284.359C483.776 284.434 484.114 284.509 484.414 284.585C484.451 284.585 484.489 284.509 484.526 284.472C484.639 283.984 484.751 283.534 484.901 283.046L485.014 282.596C485.014 282.521 485.051 282.484 485.126 282.521C485.501 282.634 485.876 282.709 486.288 282.821C486.326 282.821 486.326 282.859 486.363 282.859C486.251 283.346 486.138 283.797 486.026 284.247C485.988 284.434 485.951 284.622 485.876 284.81C485.838 284.922 485.876 284.96 485.988 284.997L487.225 285.56C487.6 285.785 487.938 286.085 488.2 286.46C488.537 287.023 488.575 287.623 488.425 288.224C488.313 288.636 488.163 289.012 487.863 289.312C487.638 289.537 487.338 289.687 487.038 289.799C487 289.799 486.963 289.837 486.888 289.837C487.038 289.95 487.188 290.025 487.338 290.137C487.788 290.475 488.088 290.887 488.238 291.413C488.313 291.825 488.275 292.276 488.163 292.688C488.013 293.214 487.825 293.664 487.488 294.076C487.075 294.564 486.551 294.827 485.951 294.902C485.163 295.014 484.414 294.939 483.664 294.827C483.551 294.789 483.476 294.827 483.439 294.939C483.289 295.54 483.139 296.177 482.989 296.778C482.952 296.928 482.952 296.965 482.764 296.89C482.427 296.815 482.052 296.703 481.714 296.628C481.602 296.59 481.602 296.553 481.639 296.478C481.789 295.84 481.939 295.202 482.127 294.602C482.127 294.527 482.164 294.489 482.089 294.452C481.789 294.377 481.49 294.302 481.152 294.227C481.077 294.564 480.965 294.902 480.89 295.24C480.815 295.577 480.702 295.915 480.627 296.252C480.59 296.328 480.59 296.365 480.477 296.328C480.102 296.215 479.728 296.14 479.353 296.065C479.24 296.027 479.24 295.99 479.278 295.915C479.428 295.277 479.578 294.639 479.765 294.039C479.765 294.001 479.803 293.964 479.803 293.889C478.94 293.664 478.078 293.439 477.178 293.214C477.253 293.063 477.291 292.951 477.366 292.801C477.516 292.463 477.666 292.126 477.778 291.825C477.816 291.713 477.853 291.713 477.966 291.713C478.228 291.788 478.528 291.863 478.79 291.9C479.09 291.975 479.315 291.825 479.353 291.563C479.84 289.649 480.327 287.736 480.777 285.785C480.852 285.485 480.665 285.147 480.327 285.035C479.99 284.922 479.653 284.847 479.353 284.772C479.278 284.772 479.24 284.735 479.278 284.66C479.39 284.247 479.503 283.797 479.615 283.384C479.465 283.497 479.465 283.497 479.503 283.459ZM481.415 292.726C481.452 292.726 481.49 292.763 481.49 292.763C482.089 292.913 482.727 293.101 483.364 293.139C483.814 293.176 484.226 293.176 484.639 293.026C485.351 292.801 485.651 291.863 485.238 291.263C485.051 290.963 484.751 290.775 484.451 290.587C483.776 290.212 482.989 290.062 482.239 289.912C482.127 289.874 482.127 289.912 482.089 290.025C482.014 290.4 481.902 290.737 481.827 291.113C481.677 291.638 481.565 292.163 481.415 292.726ZM484.564 288.899C484.639 288.899 484.826 288.862 484.976 288.824C485.688 288.674 486.063 287.849 485.688 287.211C485.501 286.873 485.163 286.648 484.826 286.498C484.301 286.273 483.776 286.16 483.214 286.01C483.102 285.973 483.064 286.01 483.027 286.123C482.839 286.911 482.652 287.661 482.427 288.449C482.389 288.524 482.427 288.561 482.502 288.599C482.652 288.636 482.764 288.674 482.914 288.711C483.476 288.786 483.964 288.899 484.564 288.899Z" fill="black"/>
<g filter="url(#filter10_d_1_2)">
<circle cx="508.866" cy="402.872" r="16.9207" fill="white"/>
</g>
<path d="M509.104 411.69L501.001 407.281V398.463L509.104 394.054L517.207 398.463V407.281L509.104 411.69ZM503.725 405.799L509.104 408.724L514.484 405.799V399.945L509.104 397.019L503.725 399.945V405.799Z" fill="black"/>
<g filter="url(#filter11_d_1_2)">
<circle cx="492.264" cy="520.359" r="20.7519" fill="white"/>
</g>
<path d="M492.557 531.174L482.619 525.766V514.952L492.557 509.545L502.494 514.952V525.766L492.557 531.174ZM485.96 523.949L492.557 527.537L499.154 523.949V516.769L492.557 513.182L485.96 516.769V523.949Z" fill="black"/>
<g filter="url(#filter12_d_1_2)">
<circle cx="294.962" cy="259.844" r="16.9207" fill="white"/>
</g>
<path d="M296.811 253.935C297.109 253.603 297.337 253.217 297.481 252.799C297.625 252.382 297.682 251.941 297.648 251.502C296.731 251.574 295.88 251.99 295.277 252.662C294.989 252.983 294.77 253.358 294.635 253.762C294.499 254.167 294.449 254.594 294.487 255.018C294.934 255.022 295.377 254.926 295.78 254.738C296.183 254.55 296.535 254.275 296.811 253.935ZM298.802 259.609C298.807 259.024 298.967 258.451 299.266 257.943C299.564 257.434 299.992 257.008 300.509 256.703C300.183 256.25 299.752 255.876 299.25 255.611C298.748 255.346 298.189 255.198 297.617 255.178C296.384 255.056 295.246 255.872 294.59 255.872C293.934 255.872 293.009 255.193 291.982 255.209C291.31 255.23 290.656 255.419 290.082 255.757C289.509 256.095 289.036 256.571 288.71 257.138C287.319 259.471 288.354 262.941 289.745 264.825C290.377 265.747 291.168 266.792 292.211 266.754C293.254 266.716 293.594 266.129 294.803 266.129C296.012 266.129 296.384 266.754 297.411 266.731C298.439 266.708 299.166 265.785 299.83 264.863C300.3 264.193 300.667 263.461 300.92 262.689C300.294 262.432 299.76 262.003 299.383 261.455C299.007 260.908 298.805 260.266 298.802 259.609Z" fill="black"/>
<g filter="url(#filter13_d_1_2)">
<circle cx="558.67" cy="333.912" r="21.3904" fill="white"/>
</g>
<path d="M561.007 326.443C561.385 326.023 561.673 325.535 561.854 325.007C562.036 324.479 562.108 323.922 562.066 323.367C560.906 323.458 559.83 323.984 559.069 324.833C558.704 325.24 558.428 325.713 558.256 326.224C558.085 326.736 558.021 327.276 558.07 327.812C558.635 327.816 559.194 327.695 559.704 327.458C560.213 327.22 560.659 326.873 561.007 326.443ZM563.525 333.615C563.531 332.876 563.733 332.151 564.111 331.509C564.488 330.866 565.029 330.327 565.683 329.942C565.27 329.369 564.725 328.896 564.09 328.561C563.456 328.227 562.749 328.039 562.026 328.014C560.467 327.86 559.029 328.891 558.199 328.891C557.37 328.891 556.201 328.033 554.903 328.053C554.053 328.08 553.226 328.318 552.501 328.746C551.776 329.173 551.179 329.775 550.766 330.491C549.008 333.441 550.317 337.828 552.075 340.209C552.874 341.375 553.873 342.696 555.192 342.648C556.511 342.599 556.941 341.857 558.469 341.857C559.998 341.857 560.467 342.648 561.766 342.619C563.065 342.59 563.984 341.423 564.823 340.257C565.418 339.41 565.882 338.485 566.202 337.509C565.41 337.184 564.735 336.641 564.259 335.949C563.783 335.257 563.528 334.445 563.525 333.615Z" fill="black"/>
<g filter="url(#filter14_d_1_2)">
<circle cx="328.165" cy="503.119" r="20.1133" fill="white"/>
</g>
<path d="M328.165 494.337C325.583 494.348 322.585 494.784 319.383 496.057C319.383 496.057 319.526 496.441 319.875 497.078C322.804 495.793 325.666 495.388 328.165 495.406V495.408C330.664 495.386 333.527 495.795 336.455 497.077C336.847 496.368 336.947 496.056 336.947 496.056C333.745 494.785 330.747 494.348 328.165 494.337Z" fill="black"/>
<path d="M325.691 498.022L328.166 511.901L330.625 498.024C332.967 498.024 333.705 498.281 333.812 499.334C333.812 499.334 335.384 498.747 336.176 497.55C333.083 496.113 329.977 496.047 329.977 496.047L328.166 498.262V498.263H328.163L328.166 498.262L326.354 496.05C326.354 496.05 323.248 496.117 320.156 497.555C320.948 498.751 322.519 499.333 322.519 499.333C322.626 498.281 323.364 498.022 325.691 498.022Z" fill="black"/>
<g filter="url(#filter15_d_1_2)">
<circle cx="234.941" cy="383.716" r="18.1978" fill="white"/>
</g>
<path d="M239.887 386.61C239.887 387.631 239.557 388.511 238.895 389.248C238.234 389.986 237.375 390.441 236.318 390.615V392.367C236.318 392.46 236.288 392.537 236.228 392.597C236.168 392.657 236.092 392.687 235.999 392.687H234.653C234.566 392.687 234.492 392.656 234.428 392.592C234.365 392.529 234.334 392.454 234.334 392.367V390.615C233.895 390.555 233.471 390.451 233.062 390.304C232.654 390.158 232.316 390.009 232.05 389.859C231.784 389.709 231.539 389.549 231.313 389.378C231.087 389.208 230.932 389.083 230.849 389.003C230.766 388.923 230.708 388.863 230.674 388.823C230.561 388.682 230.555 388.546 230.654 388.412L231.681 387.061C231.728 386.994 231.804 386.954 231.911 386.94C232.01 386.927 232.09 386.957 232.15 387.03L232.17 387.051C232.921 387.711 233.729 388.128 234.593 388.302C234.839 388.355 235.085 388.382 235.331 388.382C235.869 388.382 236.343 388.239 236.752 387.952C237.16 387.665 237.365 387.257 237.365 386.73C237.365 386.543 237.315 386.366 237.215 386.199C237.115 386.033 237.004 385.892 236.881 385.779C236.758 385.666 236.564 385.54 236.298 385.404C236.032 385.267 235.813 385.16 235.64 385.083C235.467 385.006 235.201 384.898 234.842 384.758C234.583 384.651 234.379 384.568 234.229 384.507C234.079 384.447 233.875 384.359 233.616 384.242C233.357 384.125 233.149 384.022 232.993 383.932C232.836 383.842 232.649 383.723 232.429 383.576C232.21 383.43 232.032 383.288 231.896 383.151C231.76 383.014 231.615 382.85 231.462 382.66C231.309 382.47 231.191 382.276 231.108 382.08C231.025 381.883 230.955 381.661 230.899 381.414C230.842 381.167 230.814 380.906 230.814 380.633C230.814 379.712 231.14 378.904 231.791 378.21C232.443 377.516 233.29 377.069 234.334 376.868V375.066C234.334 374.979 234.365 374.904 234.428 374.841C234.492 374.777 234.566 374.746 234.653 374.746H235.999C236.092 374.746 236.168 374.776 236.228 374.836C236.288 374.896 236.318 374.973 236.318 375.066V376.828C236.697 376.868 237.064 376.945 237.42 377.059C237.775 377.172 238.064 377.284 238.287 377.394C238.51 377.504 238.721 377.629 238.92 377.769C239.12 377.91 239.249 378.006 239.309 378.06C239.369 378.113 239.419 378.16 239.459 378.2C239.572 378.32 239.588 378.447 239.508 378.58L238.701 380.042C238.648 380.142 238.571 380.196 238.472 380.202C238.378 380.222 238.289 380.199 238.202 380.132C238.182 380.112 238.134 380.072 238.058 380.012C237.981 379.952 237.852 379.864 237.669 379.747C237.486 379.63 237.292 379.523 237.086 379.426C236.88 379.33 236.632 379.243 236.343 379.166C236.054 379.089 235.769 379.051 235.49 379.051C234.859 379.051 234.344 379.194 233.945 379.481C233.546 379.768 233.347 380.139 233.347 380.593C233.347 380.766 233.375 380.927 233.431 381.073C233.488 381.22 233.586 381.359 233.725 381.489C233.865 381.619 233.996 381.729 234.119 381.819C234.242 381.909 234.428 382.013 234.678 382.13C234.927 382.246 235.128 382.337 235.281 382.4C235.434 382.463 235.666 382.555 235.979 382.675C236.331 382.809 236.6 382.914 236.786 382.991C236.973 383.067 237.225 383.184 237.544 383.341C237.863 383.498 238.114 383.64 238.297 383.767C238.48 383.893 238.686 384.06 238.915 384.267C239.145 384.474 239.321 384.686 239.444 384.903C239.567 385.12 239.671 385.375 239.758 385.669C239.844 385.963 239.887 386.276 239.887 386.61Z" fill="black"/>
<g filter="url(#filter16_d_1_2)">
<circle cx="404.149" cy="187.053" r="20.1133" fill="white"/>
</g>
<path d="M395.934 196.065V192.011H398.298V182.746H395.934V178.837H405.826C406.502 178.837 407.177 179.03 407.805 179.271C409.059 179.754 410.169 180.478 411.038 181.539C411.81 182.456 412.341 183.518 412.63 184.724C413.113 186.751 413.113 188.826 412.534 190.853C411.762 193.507 410.121 195.293 407.322 195.92C406.84 196.017 406.309 196.065 405.826 196.113H396.32C396.175 196.065 396.078 196.065 395.934 196.065ZM403.124 192.011C403.655 192.011 404.186 192.059 404.716 192.011C405.392 191.963 406.019 191.722 406.454 191.143C406.84 190.66 407.177 190.129 407.37 189.55C407.757 188.247 407.612 186.944 407.322 185.641C407.177 184.869 406.791 184.145 406.309 183.566C406.019 183.228 405.633 182.842 405.199 182.794C404.523 182.649 403.799 182.746 403.124 182.746V192.011Z" fill="black"/>
<defs>
<filter id="filter0_d_1_2" x="0.108879" y="0.108879" width="774.625" height="774.625" filterUnits="userSpaceOnUse" color-interpolation-filters="sRGB">
<feFlood flood-opacity="0" result="BackgroundImageFix"/>
<feColorMatrix in="SourceAlpha" type="matrix" values="0 0 0 0 0 0 0 0 0 0 0 0 0 0 0 0 0 0 127 0" result="hardAlpha"/>
<feMorphology radius="24.3626" operator="dilate" in="SourceAlpha" result="effect1_dropShadow_1_2"/>
<feOffset dx="13.9215" dy="13.9215"/>
<feGaussianBlur stdDeviation="44.225"/>
<feComposite in2="hardAlpha" operator="out"/>
<feColorMatrix type="matrix" values="0 0 0 0 0 0 0 0 0 0 0 0 0 0 0 0 0 0 0.1 0"/>
<feBlend mode="normal" in2="BackgroundImageFix" result="effect1_dropShadow_1_2"/>
<feBlend mode="normal" in="SourceGraphic" in2="effect1_dropShadow_1_2" result="shape"/>
</filter>
<filter id="filter1_d_1_2" x="59.1089" y="59.1089" width="656.625" height="656.625" filterUnits="userSpaceOnUse" color-interpolation-filters="sRGB">
<feFlood flood-opacity="0" result="BackgroundImageFix"/>
<feColorMatrix in="SourceAlpha" type="matrix" values="0 0 0 0 0 0 0 0 0 0 0 0 0 0 0 0 0 0 127 0" result="hardAlpha"/>
<feMorphology radius="24.3626" operator="dilate" in="SourceAlpha" result="effect1_dropShadow_1_2"/>
<feOffset dx="13.9215" dy="13.9215"/>
<feGaussianBlur stdDeviation="44.225"/>
<feComposite in2="hardAlpha" operator="out"/>
<feColorMatrix type="matrix" values="0 0 0 0 0 0 0 0 0 0 0 0 0 0 0 0 0 0 0.1 0"/>
<feBlend mode="normal" in2="BackgroundImageFix" result="effect1_dropShadow_1_2"/>
<feBlend mode="normal" in="SourceGraphic" in2="effect1_dropShadow_1_2" result="shape"/>
</filter>
<filter id="filter2_d_1_2" x="101.828" y="101.828" width="571.186" height="571.186" filterUnits="userSpaceOnUse" color-interpolation-filters="sRGB">
<feFlood flood-opacity="0" result="BackgroundImageFix"/>
<feColorMatrix in="SourceAlpha" type="matrix" values="0 0 0 0 0 0 0 0 0 0 0 0 0 0 0 0 0 0 127 0" result="hardAlpha"/>
<feMorphology radius="24.3626" operator="dilate" in="SourceAlpha" result="effect1_dropShadow_1_2"/>
<feOffset dx="13.9215" dy="13.9215"/>
<feGaussianBlur stdDeviation="48.7253"/>
<feComposite in2="hardAlpha" operator="out"/>
<feColorMatrix type="matrix" values="0 0 0 0 0 0 0 0 0 0 0 0 0 0 0 0 0 0 0.1 0"/>
<feBlend mode="normal" in2="BackgroundImageFix" result="effect1_dropShadow_1_2"/>
<feBlend mode="normal" in="SourceGraphic" in2="effect1_dropShadow_1_2" result="shape"/>
</filter>
<filter id="filter3_d_1_2" x="152.271" y="152.271" width="470.3" height="470.3" filterUnits="userSpaceOnUse" color-interpolation-filters="sRGB">
<feFlood flood-opacity="0" result="BackgroundImageFix"/>
<feColorMatrix in="SourceAlpha" type="matrix" values="0 0 0 0 0 0 0 0 0 0 0 0 0 0 0 0 0 0 127 0" result="hardAlpha"/>
<feMorphology radius="24.3626" operator="dilate" in="SourceAlpha" result="effect1_dropShadow_1_2"/>
<feOffset dx="13.9215" dy="13.9215"/>
<feGaussianBlur stdDeviation="48.7253"/>
<feComposite in2="hardAlpha" operator="out"/>
<feColorMatrix type="matrix" values="0 0 0 0 0 0 0 0 0 0 0 0 0 0 0 0 0 0 0.1 0"/>
<feBlend mode="normal" in2="BackgroundImageFix" result="effect1_dropShadow_1_2"/>
<feBlend mode="normal" in="SourceGraphic" in2="effect1_dropShadow_1_2" result="shape"/>
</filter>
<filter id="filter4_d_1_2" x="268.194" y="268.194" width="222.052" height="222.052" filterUnits="userSpaceOnUse" color-interpolation-filters="sRGB">
<feFlood flood-opacity="0" result="BackgroundImageFix"/>
<feColorMatrix in="SourceAlpha" type="matrix" values="0 0 0 0 0 0 0 0 0 0 0 0 0 0 0 0 0 0 127 0" result="hardAlpha"/>
<feMorphology radius="10.0095" operator="dilate" in="SourceAlpha" result="effect1_dropShadow_1_2"/>
<feOffset dx="5.71969" dy="5.71969"/>
<feGaussianBlur stdDeviation="20.0189"/>
<feComposite in2="hardAlpha" operator="out"/>
<feColorMatrix type="matrix" values="0 0 0 0 0 0 0 0 0 0 0 0 0 0 0 0 0 0 0.1 0"/>
<feBlend mode="normal" in2="BackgroundImageFix" result="effect1_dropShadow_1_2"/>
<feBlend mode="normal" in="SourceGraphic" in2="effect1_dropShadow_1_2" result="shape"/>
</filter>
<filter id="filter5_d_1_2" x="325.93" y="253.778" width="78.5378" height="78.5377" filterUnits="userSpaceOnUse" color-interpolation-filters="sRGB">
<feFlood flood-opacity="0" result="BackgroundImageFix"/>
<feColorMatrix in="SourceAlpha" type="matrix" values="0 0 0 0 0 0 0 0 0 0 0 0 0 0 0 0 0 0 127 0" result="hardAlpha"/>
<feMorphology radius="4.46963" operator="dilate" in="SourceAlpha" result="effect1_dropShadow_1_2"/>
<feOffset dx="2.55407" dy="2.55407"/>
<feGaussianBlur stdDeviation="8.93926"/>
<feComposite in2="hardAlpha" operator="out"/>
<feColorMatrix type="matrix" values="0 0 0 0 0 0 0 0 0 0 0 0 0 0 0 0 0 0 0.1 0"/>
<feBlend mode="normal" in2="BackgroundImageFix" result="effect1_dropShadow_1_2"/>
<feBlend mode="normal" in="SourceGraphic" in2="effect1_dropShadow_1_2" result="shape"/>
</filter>
<filter id="filter6_d_1_2" x="416.6" y="357.218" width="79.8148" height="79.8148" filterUnits="userSpaceOnUse" color-interpolation-filters="sRGB">
<feFlood flood-opacity="0" result="BackgroundImageFix"/>
<feColorMatrix in="SourceAlpha" type="matrix" values="0 0 0 0 0 0 0 0 0 0 0 0 0 0 0 0 0 0 127 0" result="hardAlpha"/>
<feMorphology radius="4.46963" operator="dilate" in="SourceAlpha" result="effect1_dropShadow_1_2"/>
<feOffset dx="2.55407" dy="2.55407"/>
<feGaussianBlur stdDeviation="8.93926"/>
<feComposite in2="hardAlpha" operator="out"/>
<feColorMatrix type="matrix" values="0 0 0 0 0 0 0 0 0 0 0 0 0 0 0 0 0 0 0.1 0"/>
<feBlend mode="normal" in2="BackgroundImageFix" result="effect1_dropShadow_1_2"/>
<feBlend mode="normal" in="SourceGraphic" in2="effect1_dropShadow_1_2" result="shape"/>
</filter>
<filter id="filter7_d_1_2" x="152.892" y="404.468" width="88.7541" height="88.7541" filterUnits="userSpaceOnUse" color-interpolation-filters="sRGB">
<feFlood flood-opacity="0" result="BackgroundImageFix"/>
<feColorMatrix in="SourceAlpha" type="matrix" values="0 0 0 0 0 0 0 0 0 0 0 0 0 0 0 0 0 0 127 0" result="hardAlpha"/>
<feMorphology radius="4.46963" operator="dilate" in="SourceAlpha" result="effect1_dropShadow_1_2"/>
<feOffset dx="2.55407" dy="2.55407"/>
<feGaussianBlur stdDeviation="8.93926"/>
<feComposite in2="hardAlpha" operator="out"/>
<feColorMatrix type="matrix" values="0 0 0 0 0 0 0 0 0 0 0 0 0 0 0 0 0 0 0.1 0"/>
<feBlend mode="normal" in2="BackgroundImageFix" result="effect1_dropShadow_1_2"/>
<feBlend mode="normal" in="SourceGraphic" in2="effect1_dropShadow_1_2" result="shape"/>
</filter>
<filter id="filter8_d_1_2" x="257.609" y="369.35" width="79.8148" height="79.8148" filterUnits="userSpaceOnUse" color-interpolation-filters="sRGB">
<feFlood flood-opacity="0" result="BackgroundImageFix"/>
<feColorMatrix in="SourceAlpha" type="matrix" values="0 0 0 0 0 0 0 0 0 0 0 0 0 0 0 0 0 0 127 0" result="hardAlpha"/>
<feMorphology radius="4.46963" operator="dilate" in="SourceAlpha" result="effect1_dropShadow_1_2"/>
<feOffset dx="2.55407" dy="2.55407"/>
<feGaussianBlur stdDeviation="8.93926"/>
<feComposite in2="hardAlpha" operator="out"/>
<feColorMatrix type="matrix" values="0 0 0 0 0 0 0 0 0 0 0 0 0 0 0 0 0 0 0.1 0"/>
<feBlend mode="normal" in2="BackgroundImageFix" result="effect1_dropShadow_1_2"/>
<feBlend mode="normal" in="SourceGraphic" in2="effect1_dropShadow_1_2" result="shape"/>
</filter>
<filter id="filter9_d_1_2" x="447.249" y="253.778" width="75.9837" height="75.9836" filterUnits="userSpaceOnUse" color-interpolation-filters="sRGB">
<feFlood flood-opacity="0" result="BackgroundImageFix"/>
<feColorMatrix in="SourceAlpha" type="matrix" values="0 0 0 0 0 0 0 0 0 0 0 0 0 0 0 0 0 0 127 0" result="hardAlpha"/>
<feMorphology radius="4.46963" operator="dilate" in="SourceAlpha" result="effect1_dropShadow_1_2"/>
<feOffset dx="2.55407" dy="2.55407"/>
<feGaussianBlur stdDeviation="8.93926"/>
<feComposite in2="hardAlpha" operator="out"/>
<feColorMatrix type="matrix" values="0 0 0 0 0 0 0 0 0 0 0 0 0 0 0 0 0 0 0.1 0"/>
<feBlend mode="normal" in2="BackgroundImageFix" result="effect1_dropShadow_1_2"/>
<feBlend mode="normal" in="SourceGraphic" in2="effect1_dropShadow_1_2" result="shape"/>
</filter>
<filter id="filter10_d_1_2" x="472.151" y="366.157" width="78.5378" height="78.5378" filterUnits="userSpaceOnUse" color-interpolation-filters="sRGB">
<feFlood flood-opacity="0" result="BackgroundImageFix"/>
<feColorMatrix in="SourceAlpha" type="matrix" values="0 0 0 0 0 0 0 0 0 0 0 0 0 0 0 0 0 0 127 0" result="hardAlpha"/>
<feMorphology radius="4.46963" operator="dilate" in="SourceAlpha" result="effect1_dropShadow_1_2"/>
<feOffset dx="2.55407" dy="2.55407"/>
<feGaussianBlur stdDeviation="8.93926"/>
<feComposite in2="hardAlpha" operator="out"/>
<feColorMatrix type="matrix" values="0 0 0 0 0 0 0 0 0 0 0 0 0 0 0 0 0 0 0.1 0"/>
<feBlend mode="normal" in2="BackgroundImageFix" result="effect1_dropShadow_1_2"/>
<feBlend mode="normal" in="SourceGraphic" in2="effect1_dropShadow_1_2" result="shape"/>
</filter>
<filter id="filter11_d_1_2" x="451.719" y="479.813" width="86.2" height="86.2" filterUnits="userSpaceOnUse" color-interpolation-filters="sRGB">
<feFlood flood-opacity="0" result="BackgroundImageFix"/>
<feColorMatrix in="SourceAlpha" type="matrix" values="0 0 0 0 0 0 0 0 0 0 0 0 0 0 0 0 0 0 127 0" result="hardAlpha"/>
<feMorphology radius="4.46963" operator="dilate" in="SourceAlpha" result="effect1_dropShadow_1_2"/>
<feOffset dx="2.55407" dy="2.55407"/>
<feGaussianBlur stdDeviation="8.93926"/>
<feComposite in2="hardAlpha" operator="out"/>
<feColorMatrix type="matrix" values="0 0 0 0 0 0 0 0 0 0 0 0 0 0 0 0 0 0 0.1 0"/>
<feBlend mode="normal" in2="BackgroundImageFix" result="effect1_dropShadow_1_2"/>
<feBlend mode="normal" in="SourceGraphic" in2="effect1_dropShadow_1_2" result="shape"/>
</filter>
<filter id="filter12_d_1_2" x="258.247" y="223.129" width="78.5378" height="78.5377" filterUnits="userSpaceOnUse" color-interpolation-filters="sRGB">
<feFlood flood-opacity="0" result="BackgroundImageFix"/>
<feColorMatrix in="SourceAlpha" type="matrix" values="0 0 0 0 0 0 0 0 0 0 0 0 0 0 0 0 0 0 127 0" result="hardAlpha"/>
<feMorphology radius="4.46963" operator="dilate" in="SourceAlpha" result="effect1_dropShadow_1_2"/>
<feOffset dx="2.55407" dy="2.55407"/>
<feGaussianBlur stdDeviation="8.93926"/>
<feComposite in2="hardAlpha" operator="out"/>
<feColorMatrix type="matrix" values="0 0 0 0 0 0 0 0 0 0 0 0 0 0 0 0 0 0 0.1 0"/>
<feBlend mode="normal" in2="BackgroundImageFix" result="effect1_dropShadow_1_2"/>
<feBlend mode="normal" in="SourceGraphic" in2="effect1_dropShadow_1_2" result="shape"/>
</filter>
<filter id="filter13_d_1_2" x="517.486" y="292.728" width="87.477" height="87.4771" filterUnits="userSpaceOnUse" color-interpolation-filters="sRGB">
<feFlood flood-opacity="0" result="BackgroundImageFix"/>
<feColorMatrix in="SourceAlpha" type="matrix" values="0 0 0 0 0 0 0 0 0 0 0 0 0 0 0 0 0 0 127 0" result="hardAlpha"/>
<feMorphology radius="4.46963" operator="dilate" in="SourceAlpha" result="effect1_dropShadow_1_2"/>
<feOffset dx="2.55407" dy="2.55407"/>
<feGaussianBlur stdDeviation="8.93926"/>
<feComposite in2="hardAlpha" operator="out"/>
<feColorMatrix type="matrix" values="0 0 0 0 0 0 0 0 0 0 0 0 0 0 0 0 0 0 0.1 0"/>
<feBlend mode="normal" in2="BackgroundImageFix" result="effect1_dropShadow_1_2"/>
<feBlend mode="normal" in="SourceGraphic" in2="effect1_dropShadow_1_2" result="shape"/>
</filter>
<filter id="filter14_d_1_2" x="288.258" y="463.212" width="84.923" height="84.923" filterUnits="userSpaceOnUse" color-interpolation-filters="sRGB">
<feFlood flood-opacity="0" result="BackgroundImageFix"/>
<feColorMatrix in="SourceAlpha" type="matrix" values="0 0 0 0 0 0 0 0 0 0 0 0 0 0 0 0 0 0 127 0" result="hardAlpha"/>
<feMorphology radius="4.46963" operator="dilate" in="SourceAlpha" result="effect1_dropShadow_1_2"/>
<feOffset dx="2.55407" dy="2.55407"/>
<feGaussianBlur stdDeviation="8.93926"/>
<feComposite in2="hardAlpha" operator="out"/>
<feColorMatrix type="matrix" values="0 0 0 0 0 0 0 0 0 0 0 0 0 0 0 0 0 0 0.1 0"/>
<feBlend mode="normal" in2="BackgroundImageFix" result="effect1_dropShadow_1_2"/>
<feBlend mode="normal" in="SourceGraphic" in2="effect1_dropShadow_1_2" result="shape"/>
</filter>
<filter id="filter15_d_1_2" x="196.95" y="345.724" width="81.0918" height="81.0919" filterUnits="userSpaceOnUse" color-interpolation-filters="sRGB">
<feFlood flood-opacity="0" result="BackgroundImageFix"/>
<feColorMatrix in="SourceAlpha" type="matrix" values="0 0 0 0 0 0 0 0 0 0 0 0 0 0 0 0 0 0 127 0" result="hardAlpha"/>
<feMorphology radius="4.46963" operator="dilate" in="SourceAlpha" result="effect1_dropShadow_1_2"/>
<feOffset dx="2.55407" dy="2.55407"/>
<feGaussianBlur stdDeviation="8.93926"/>
<feComposite in2="hardAlpha" operator="out"/>
<feColorMatrix type="matrix" values="0 0 0 0 0 0 0 0 0 0 0 0 0 0 0 0 0 0 0.1 0"/>
<feBlend mode="normal" in2="BackgroundImageFix" result="effect1_dropShadow_1_2"/>
<feBlend mode="normal" in="SourceGraphic" in2="effect1_dropShadow_1_2" result="shape"/>
</filter>
<filter id="filter16_d_1_2" x="364.241" y="147.145" width="84.923" height="84.923" filterUnits="userSpaceOnUse" color-interpolation-filters="sRGB">
<feFlood flood-opacity="0" result="BackgroundImageFix"/>
<feColorMatrix in="SourceAlpha" type="matrix" values="0 0 0 0 0 0 0 0 0 0 0 0 0 0 0 0 0 0 127 0" result="hardAlpha"/>
<feMorphology radius="4.46963" operator="dilate" in="SourceAlpha" result="effect1_dropShadow_1_2"/>
<feOffset dx="2.55407" dy="2.55407"/>
<feGaussianBlur stdDeviation="8.93926"/>
<feComposite in2="hardAlpha" operator="out"/>
<feColorMatrix type="matrix" values="0 0 0 0 0 0 0 0 0 0 0 0 0 0 0 0 0 0 0.1 0"/>
<feBlend mode="normal" in2="BackgroundImageFix" result="effect1_dropShadow_1_2"/>
<feBlend mode="normal" in="SourceGraphic" in2="effect1_dropShadow_1_2" result="shape"/>
</filter>
<clipPath id="clip0_1_2">
<rect width="14.3442" height="14.3442" fill="white" transform="translate(446.781 387.399)"/>
</clipPath>
<clipPath id="clip1_1_2">
<rect width="17.9954" height="17.9954" fill="white" transform="translate(185.717 437.293)"/>
</clipPath>
</defs>
</svg>
